<svg width="94" height="76" viewBox="0 0 94 76" fill="none" xmlns="http://www.w3.org/2000/svg">
<path d="M3.79798 0.000160251C2.79069 0.000160251 1.82466 0.400516 1.1124 1.11315C0.400143 1.82579 0 2.79233 0 3.80015C0 4.80797 0.400143 5.77452 1.1124 6.48715C1.82466 7.19979 2.79069 7.60014 3.79798 7.60014H12.2295L22.1954 47.5001C23.0423 50.8821 26.0693 53.2001 29.5521 53.2001H76.9129C80.3425 53.2001 83.2555 50.9201 84.1556 47.6141L94 11.4001H86.047L76.9091 45.6001H29.5483L19.5862 5.70015C19.1747 4.06322 18.226 2.61181 16.8922 1.57835C15.5584 0.544887 13.9165 -0.0108411 12.2295 0.000160251H3.79798ZM72.1616 53.2001C65.9139 53.2001 60.7677 58.349 60.7677 64.6C60.7677 70.851 65.9139 76 72.1616 76C78.4093 76 83.5556 70.851 83.5556 64.6C83.5556 58.349 78.4093 53.2001 72.1616 53.2001ZM37.9798 53.2001C31.7321 53.2001 26.5859 58.349 26.5859 64.6C26.5859 70.851 31.7321 76 37.9798 76C44.2275 76 49.3737 70.851 49.3737 64.6C49.3737 58.349 44.2275 53.2001 37.9798 53.2001ZM49.3737 0.000160251V19.0001H37.9798L53.1717 34.2001L68.3636 19.0001H56.9697V0.000160251H49.3737ZM37.9798 60.8C40.1219 60.8 41.7778 62.4568 41.7778 64.6C41.7778 66.7432 40.1219 68.4 37.9798 68.4C35.8377 68.4 34.1818 66.7432 34.1818 64.6C34.1818 62.4568 35.8377 60.8 37.9798 60.8ZM72.1616 60.8C74.3037 60.8 75.9596 62.4568 75.9596 64.6C75.9596 66.7432 74.3037 68.4 72.1616 68.4C70.0196 68.4 68.3636 66.7432 68.3636 64.6C68.3636 62.4568 70.0196 60.8 72.1616 60.8Z" fill="black"/>
</svg>
