<svg width="61" height="26" viewBox="0 0 61 26" fill="none" xmlns="http://www.w3.org/2000/svg">
<g clip-path="url(#clip0_201_166)">
<path fill-rule="evenodd" clip-rule="evenodd" d="M55.1355 21.7992H53.2509V19.0005H55.1261C55.784 19.0005 56.2522 19.2186 56.4442 19.783C56.5097 19.9692 56.5425 20.1962 56.5425 20.4667C56.5425 21.4617 56.0134 21.7992 55.1355 21.7992ZM53.2509 15.23H54.974C55.8191 15.23 56.1984 15.7013 56.1984 16.4287C56.1984 17.3422 55.6131 17.6535 54.974 17.6535H53.2509V15.23ZM57.9753 19.783C57.7763 18.9423 57.2308 18.2557 56.4021 18.1509V18.1248C57.2495 17.9211 57.7131 17.2374 57.7131 16.1872C57.7131 14.5987 56.6947 13.8045 55.4281 13.8045H51.7994V23.3876H55.0817C56.6853 23.3876 58.0619 22.9163 58.0619 20.5191C58.0619 20.2689 58.0315 20.0187 57.9753 19.783Z" fill="white"/>
<path fill-rule="evenodd" clip-rule="evenodd" d="M16.4599 24.755C16.2023 24.3041 15.898 23.8793 15.5726 23.5127C15.4883 23.4167 15.404 23.3265 15.3151 23.2393C15.1816 23.1229 14.9803 22.9367 14.807 22.896C14.7532 22.8872 14.6431 22.9105 14.7321 23.0414C14.8328 23.1898 14.9171 23.3469 14.9896 23.5127C15.1582 23.8939 15.2612 24.3157 15.3268 24.755C15.3806 25.1448 15.4087 25.5463 15.4227 25.9449H16.9843C16.8579 25.5434 16.6776 25.1419 16.4599 24.755Z" fill="white"/>
<path fill-rule="evenodd" clip-rule="evenodd" d="M1.05989 13.0481L1.06223 0.782633L11.3047 0.779724L11.3141 13.0365L1.05989 13.0481ZM20.2502 24.8452H20.2713C19.9903 24.4175 19.7422 24.1033 19.4519 23.8298C19.3278 23.7338 19.206 23.6262 19.0937 23.5127C18.4943 22.9134 18.0612 22.0872 18.0565 21.133C17.9582 20.5249 17.7335 20.0973 17.4361 19.7831C16.7034 19.0092 15.5258 18.919 14.6642 18.4797C13.8238 17.9677 12.5876 18.1568 12.192 16.8912C12.3816 15.2737 14.2967 14.7151 14.2545 13.0423C14.3412 12.3295 13.4422 12.184 13.5311 11.5295C14.0064 10.6974 14.402 9.76936 14.2241 8.65802C14.0649 8.37 13.9408 7.9307 13.6131 7.83761C12.9622 7.65141 12.3746 7.92779 11.9298 8.50965L11.9345 -0.00286865L0.451194 4.06145e-05L0.448853 13.6532C0.448853 13.6532 4.04484 15.7479 5.87561 16.6498C6.87059 16.9669 7.71574 16.2279 8.62879 16.1988C8.43447 17.5429 7.90303 18.6979 7.24049 19.7831C6.46089 21.0544 5.50103 22.2327 4.68865 23.5127C4.56691 23.7018 4.44986 23.8938 4.33514 24.0917C4.24618 24.3157 4.14317 24.5339 4.04484 24.755C3.87628 25.1419 3.7241 25.5259 3.70772 25.9449H7.13514C7.14685 25.5492 7.17026 25.1477 7.21708 24.755C7.26859 24.3244 7.35052 23.9026 7.47929 23.5127C7.69935 22.8465 8.05521 22.2676 8.63581 21.869C9.0221 21.6741 9.5629 21.3424 9.96792 21.7235C10.181 22.3228 10.195 22.9192 10.1365 23.5127C10.0967 23.9026 10.0288 24.2924 9.96323 24.755H9.95153C9.88598 25.1477 9.82979 25.5463 9.8134 25.9449H12.782C12.7984 25.5259 12.7609 25.1332 12.7024 24.7579H12.6883C12.6204 24.2866 12.5268 23.8997 12.4425 23.5127C12.4238 23.4342 12.4074 23.3527 12.391 23.2742C12.2646 22.6981 11.904 22.2007 11.8221 21.6624C12.4425 21.677 13.0301 21.7643 13.606 21.9126C14.5121 22.1134 15.4438 22.6952 16.1813 23.5127C16.4973 23.8618 16.7783 24.2575 17.0686 24.755H17.0475C17.2442 25.1303 17.3987 25.5289 17.5017 25.9449H20.7676C20.6295 25.5638 20.4586 25.1914 20.2502 24.8452Z" fill="white"/>
<path fill-rule="evenodd" clip-rule="evenodd" d="M32.979 19.783V19.2419H36.6592V17.6535H32.979V15.4715H36.9847V13.8045H31.5275V23.3876H37.2656V21.7177H32.979V19.783Z" fill="white"/>
<path fill-rule="evenodd" clip-rule="evenodd" d="M44.3639 19.7831C44.1181 18.5059 43.1793 18.0404 42.1937 17.7757L41.2525 17.5197C40.384 17.2753 39.6582 17.0891 39.6582 16.2949C39.6582 15.6199 40.288 15.2301 41.1214 15.2301C42.0649 15.2301 42.7789 15.7421 43.1465 16.6178L44.3499 15.4861C43.5468 14.1682 42.4535 13.563 41.1331 13.563C39.691 13.563 38.1435 14.5318 38.1435 16.5509C38.1435 18.3139 39.2274 18.8783 40.4612 19.2274L41.3181 19.4718C41.6786 19.5736 41.9853 19.6696 42.2288 19.7831C42.6736 19.9867 42.9077 20.2485 42.9077 20.7373C42.9077 21.6654 41.9759 21.9592 41.2736 21.9592C40.3301 21.9592 39.485 21.5024 38.9442 20.5075L37.7104 21.6101C38.2699 22.6254 39.1689 23.2655 40.1311 23.5127C40.4331 23.5913 40.7398 23.6291 41.0465 23.6291C41.3883 23.6291 41.7371 23.5913 42.0766 23.5127C43.3244 23.216 44.4248 22.3229 44.4248 20.4813C44.4248 20.2224 44.4037 19.9925 44.3639 19.7831Z" fill="white"/>
<path fill-rule="evenodd" clip-rule="evenodd" d="M46.7752 19.9401L47.8381 15.553H47.8592L48.9197 19.9401H46.7752ZM48.6926 13.8045H47.0023L44.4247 23.3876H45.9418L46.3866 21.5286H49.3107L49.7555 23.3876H51.2702L48.6926 13.8045Z" fill="white"/>
<path fill-rule="evenodd" clip-rule="evenodd" d="M24.5017 24.9499C24.2418 24.9499 23.9796 24.883 23.7361 24.755C23.2937 24.5223 22.9097 24.0946 22.6967 23.5127C22.5749 23.1607 22.5164 22.8436 22.5164 22.4509V14.5638C22.5164 13.3303 23.303 12.0822 24.5274 12.0822H57.5585C58.7853 12.0822 59.5719 13.3128 59.5719 14.5464V22.445C59.5719 22.8407 59.504 23.1985 59.3893 23.5127C59.1739 24.0946 58.79 24.5252 58.3475 24.755C58.1064 24.883 57.8488 24.9499 57.5913 24.9499H24.5017ZM57.5117 11.0233H24.5602C22.6124 11.0233 21.6525 13.0685 21.6525 14.558V22.3839C21.6525 22.7941 21.6923 23.1316 21.7836 23.5127C21.903 23.9986 22.0997 24.4117 22.3432 24.755H23.2141H22.3432C22.9284 25.587 23.7853 26.0002 24.49 26.0002H57.5773C58.282 26.0002 59.1388 25.587 59.7264 24.755H59.7288C59.9699 24.4117 60.1666 23.9986 60.2883 23.5127C60.3726 23.1724 60.4194 22.7941 60.4194 22.3839L60.4218 14.5493C60.4218 13.0597 59.4595 11.0233 57.5117 11.0233Z" fill="white"/>
<path fill-rule="evenodd" clip-rule="evenodd" d="M29.493 20.0216C29.2097 21.1388 28.6361 21.9592 27.6294 21.9592C26.4612 21.9592 25.8127 20.9817 25.5669 19.7831C25.4896 19.4892 25.4522 18.9976 25.4522 18.5961C25.4522 16.9262 26.0913 15.2301 27.6294 15.2301C28.5074 15.2301 29.2097 15.9574 29.3291 17.0222L30.7268 16.577C30.3592 14.5726 29.1769 13.563 27.6294 13.563C25.3211 13.563 23.9351 15.8905 23.9351 18.5961C23.9351 19.0005 23.9632 19.4892 24.0194 19.7831C24.2839 21.613 25.1806 23.0967 26.7187 23.5127C26.9997 23.5884 27.304 23.6291 27.6294 23.6291C27.9431 23.6291 28.2358 23.5913 28.5097 23.5127C29.5702 23.2073 30.3217 22.3054 30.8134 20.7751L29.493 20.0216Z" fill="white"/>
</g>
<defs>
<clipPath id="clip0_201_166">
<rect width="59.9751" height="26" fill="white" transform="translate(0.448853)"/>
</clipPath>
</defs>
</svg>
