<svg width="32" height="31" viewBox="0 0 32 31" fill="none" xmlns="http://www.w3.org/2000/svg">
<g clip-path="url(#clip0_722_2974)">
<path d="M16.8177 9.25692C16.8177 9.02854 16.724 8.80952 16.5573 8.64803C16.3906 8.48654 16.1646 8.39581 15.9288 8.39581C15.6931 8.39581 15.467 8.48654 15.3003 8.64803C15.1336 8.80952 15.0399 9.02854 15.0399 9.25692V16.7658L20.2844 20.2103C20.381 20.2806 20.4914 20.3312 20.6088 20.3589C20.7263 20.3865 20.8484 20.3906 20.9675 20.371C21.0867 20.3514 21.2005 20.3085 21.302 20.2448C21.4034 20.1811 21.4904 20.0981 21.5576 20.0007C21.6248 19.9034 21.6708 19.7938 21.6927 19.6786C21.7147 19.5635 21.7122 19.4452 21.6854 19.331C21.6586 19.2168 21.608 19.1091 21.5367 19.0145C21.4655 18.9199 21.3751 18.8404 21.271 18.7808L16.8266 15.8616L16.8177 9.25692Z" fill="#262626"/>
<path d="M29.4401 11.0309C28.8999 11.2705 28.3288 11.4385 27.7423 11.5303C28.6803 14.1174 28.6833 16.9365 27.7508 19.5255C26.8183 22.1145 25.0057 24.3199 22.6099 25.7801C20.2141 27.2403 17.3773 27.8689 14.5645 27.5627C11.7517 27.2564 9.12964 26.0337 7.12816 24.0947C5.12667 22.1558 3.86445 19.6157 3.54836 16.8908C3.23227 14.1659 3.88107 11.4177 5.38841 9.09682C6.89576 6.77591 9.17224 5.01987 11.8448 4.11651C14.5173 3.21315 17.4273 3.21606 20.0979 4.12477C20.1927 3.55658 20.3661 3.00336 20.6134 2.48004C17.5612 1.45766 14.2414 1.46805 11.1961 2.50953C8.15078 3.55101 5.55999 5.56203 3.84684 8.21414C2.1337 10.8663 1.39944 14.0027 1.764 17.1113C2.12855 20.2199 3.57036 23.1169 5.85397 25.3291C8.13757 27.5413 11.128 28.9381 14.3369 29.2913C17.5457 29.6444 20.7834 28.9331 23.521 27.2735C26.2587 25.6139 28.3346 23.1041 29.4097 20.1539C30.4847 17.2038 30.4955 13.9877 29.4401 11.0309Z" fill="#262626"/>
<path d="M16 5.4939C13.4541 5.4991 11.0008 6.41972 9.11557 8.07736C7.23037 9.735 6.04752 12.0116 5.79628 14.466C5.54503 16.9203 6.24326 19.3776 7.75566 21.3617C9.26807 23.3457 11.4869 24.7152 13.9822 25.2047L14.2222 23.8528C12.9162 23.6288 11.6784 23.1245 10.5996 22.3768C9.5209 21.6292 8.62856 20.6571 7.98803 19.5319C7.3475 18.4067 6.97503 17.1569 6.89791 15.8742C6.8208 14.5914 7.04099 13.3082 7.54236 12.1186C8.04373 10.929 8.81356 9.86312 9.79542 8.9992C10.7773 8.13529 11.9463 7.49519 13.2167 7.12583C14.4871 6.75648 15.8267 6.66723 17.1374 6.86464C18.448 7.06204 19.6964 7.5411 20.7911 8.26667C20.4561 7.66638 20.222 7.01814 20.0978 6.3464C18.8077 5.7899 17.4122 5.49958 16 5.4939Z" fill="#262626"/>
<path d="M26.6666 9.47226C29.1212 9.47226 31.1111 7.54459 31.1111 5.1667C31.1111 2.78881 29.1212 0.861145 26.6666 0.861145C24.212 0.861145 22.2222 2.78881 22.2222 5.1667C22.2222 7.54459 24.212 9.47226 26.6666 9.47226Z" fill="#262626"/>
</g>
<defs>
<clipPath id="clip0_722_2974">
<rect width="32" height="31" fill="white"/>
</clipPath>
</defs>
</svg>
