<svg width="24" height="24" viewBox="0 0 24 24" fill="none" xmlns="http://www.w3.org/2000/svg">
<g clip-path="url(#clip0_743_2627)">
<path d="M4.5 3.75C4.5 3.55109 4.57902 3.36032 4.71967 3.21967C4.86032 3.07902 5.05109 3 5.25 3H12.75C12.9489 3 13.1397 3.07902 13.2803 3.21967C13.421 3.36032 13.5 3.55109 13.5 3.75V11.25C13.5 11.4489 13.421 11.6397 13.2803 11.7803C13.1397 11.921 12.9489 12 12.75 12H5.25C5.05109 12 4.86032 11.921 4.71967 11.7803C4.57902 11.6397 4.5 11.4489 4.5 11.25V3.75Z" fill="black"/>
<path d="M1.5 3C1.5 2.20435 1.81607 1.44129 2.37868 0.87868C2.94129 0.316071 3.70435 0 4.5 0L13.5 0C14.2956 0 15.0587 0.316071 15.6213 0.87868C16.1839 1.44129 16.5 2.20435 16.5 3V15C17.2956 15 18.0587 15.3161 18.6213 15.8787C19.1839 16.4413 19.5 17.2044 19.5 18V18.75C19.5 18.9489 19.579 19.1397 19.7197 19.2803C19.8603 19.421 20.0511 19.5 20.25 19.5C20.4489 19.5 20.6397 19.421 20.7803 19.2803C20.921 19.1397 21 18.9489 21 18.75V12H20.25C20.0511 12 19.8603 11.921 19.7197 11.7803C19.579 11.6397 19.5 11.4489 19.5 11.25V6.5625C19.5 6.36359 19.579 6.17282 19.7197 6.03217C19.8603 5.89152 20.0511 5.8125 20.25 5.8125H22.4925C22.476 5.0985 22.413 4.4715 22.191 3.9795C22.0722 3.69343 21.8651 3.45275 21.6 3.2925C21.324 3.1275 20.904 3 20.25 3C20.0511 3 19.8603 2.92098 19.7197 2.78033C19.579 2.63968 19.5 2.44891 19.5 2.25C19.5 2.05109 19.579 1.86032 19.7197 1.71967C19.8603 1.57902 20.0511 1.5 20.25 1.5C21.096 1.5 21.801 1.665 22.368 2.004C22.9425 2.346 23.319 2.8305 23.559 3.3645C24.0015 4.347 24 5.562 24 6.486V11.2485C24.0002 11.3471 23.9809 11.4448 23.9433 11.536C23.9057 11.6271 23.8505 11.71 23.7809 11.7798C23.7112 11.8496 23.6285 11.905 23.5374 11.9428C23.4463 11.9806 23.3486 12 23.25 12H22.5V18.75C22.5 19.3467 22.2629 19.919 21.841 20.341C21.419 20.7629 20.8467 21 20.25 21C19.6533 21 19.081 20.7629 18.659 20.341C18.2371 19.919 18 19.3467 18 18.75V18C18 17.6022 17.842 17.2206 17.5607 16.9393C17.2794 16.658 16.8978 16.5 16.5 16.5V22.5H17.25C17.4489 22.5 17.6397 22.579 17.7803 22.7197C17.921 22.8603 18 23.0511 18 23.25C18 23.4489 17.921 23.6397 17.7803 23.7803C17.6397 23.921 17.4489 24 17.25 24H0.75C0.551088 24 0.360322 23.921 0.21967 23.7803C0.0790176 23.6397 0 23.4489 0 23.25C0 23.0511 0.0790176 22.8603 0.21967 22.7197C0.360322 22.579 0.551088 22.5 0.75 22.5H1.5V3ZM15 3C15 2.60218 14.842 2.22064 14.5607 1.93934C14.2794 1.65804 13.8978 1.5 13.5 1.5H4.5C4.10218 1.5 3.72064 1.65804 3.43934 1.93934C3.15804 2.22064 3 2.60218 3 3V22.5H15V3Z" fill="black"/>
</g>
<defs>
<clipPath id="clip0_743_2627">
<rect width="24" height="24" fill="white"/>
</clipPath>
</defs>
</svg>
