<svg width="83" height="15" viewBox="0 0 83 15" fill="none" xmlns="http://www.w3.org/2000/svg">
<g clip-path="url(#clip0_201_163)">
<path d="M8.45366 11.3205C8.33816 11.789 8.25154 12.3296 8.25154 12.6901C8.25154 14.0957 9.11776 14.9968 10.9368 14.9968C13.3334 14.9968 14.2573 13.9155 14.7771 11.6088L16.3363 4.94098H14.113L12.5538 11.5367C12.3805 12.2576 12.034 12.5819 11.3411 12.5819C10.7058 12.5819 10.4748 12.1855 10.6192 11.5007L12.1784 4.90494H9.95511L8.45366 11.3205ZM38.4538 14.8526H43.7088L44.2575 12.5099H41.2257L41.5722 10.9961H44.2575L44.7772 8.72542H42.1208L42.4961 7.1756H45.5279L46.0476 4.94098H40.7926L38.4538 14.8526ZM72.8716 4.79681C70.7061 4.79681 69.0891 5.12119 68.0208 10.1311C67.8475 10.9961 67.732 11.753 67.732 12.4017C67.732 13.9876 68.425 14.9968 70.6194 14.9968C71.168 14.9968 71.8899 14.8887 72.3807 14.6724L72.9294 12.3657C72.9294 12.3657 72.3519 12.5459 71.4279 12.5459C70.4173 12.5459 70.1574 12.1494 70.1574 11.5007C70.1574 11.1042 70.2441 10.6717 70.3596 10.1671C70.9082 7.49998 71.5145 7.21165 72.6117 7.21165C73.5357 7.21165 74.0554 7.39186 74.0554 7.39186L74.6329 5.01307C74.2576 4.94098 73.4202 4.79681 72.8716 4.79681ZM0.946411 14.7805C1.26403 14.8887 2.04362 14.9968 2.67885 14.9968C5.50851 14.9968 6.66347 14.0236 7.2987 11.3205L8.82902 4.94098H6.60572L5.27751 10.6357C5.19089 10.8159 5.10427 11.1763 4.98877 11.4646C4.61341 12.2936 3.89156 12.5099 3.05421 12.5099C2.21687 12.5099 1.49502 12.3657 1.49502 12.3657L0.946411 14.7805ZM56.269 14.8526H58.4635L59.2431 11.5367H59.8494L60.5135 14.8526H62.9101L62.015 11.0682C62.6791 10.8159 63.4587 10.5275 63.9784 8.32896C64.1228 7.75228 64.1805 7.13956 64.1805 6.81518C64.1805 5.62579 63.603 4.90494 62.1882 4.90494H58.6078L56.269 14.8526ZM59.7339 9.44627L60.2537 7.21165H61.2642C61.6396 7.21165 61.8417 7.46394 61.8417 7.86041C61.8417 8.79751 61.4664 9.44627 60.7156 9.44627H59.7339ZM30.5423 9.12189H27.5683L27.1352 10.96H28.088L27.7126 12.5459C27.7126 12.5459 27.395 12.618 27.0197 12.618C26.2112 12.618 26.0957 12.1855 26.0957 11.5367C26.0957 11.1403 26.1823 10.6717 26.2689 10.1671C26.8175 7.49998 27.4528 7.1756 28.55 7.1756C29.7049 7.1756 30.6 7.46394 30.6 7.46394L31.1775 5.15724C30.8599 5.01307 29.8493 4.79681 28.8387 4.79681C26.6732 4.79681 25.0562 5.08515 23.9879 10.095C23.8146 10.96 23.728 11.6809 23.728 12.3657C23.728 13.9516 24.4787 14.9968 26.6443 14.9968C27.6838 14.9968 28.781 14.7805 29.3007 14.5643L30.5423 9.12189ZM47.2315 4.94098H49.4548L47.116 14.8526H44.8927L47.2315 4.94098ZM17.6356 4.94098H19.5124L20.6674 10.2392H20.6962C20.6962 10.2392 20.8695 9.37418 21.0427 8.65334L21.909 4.97703H24.1034L21.7646 14.8887H19.8878L18.7039 9.66252H18.6751C18.6751 9.66252 18.5018 10.4555 18.3286 11.2844L17.4624 14.8887H15.2679L17.6356 4.94098ZM50.783 4.94098H52.6598L53.8147 10.2392H53.8436C53.8436 10.2392 54.0169 9.37418 54.1901 8.65334L55.0563 4.97703H57.2508L54.912 14.8887H53.0351L51.8513 9.66252H51.8224C51.8224 9.66252 51.6492 10.4555 51.476 11.2844L50.6097 14.8887H48.4153L50.783 4.94098ZM65.913 4.94098H68.1363L65.7975 14.8526H63.5453L65.913 4.94098ZM32.7945 4.94098H35.0178L34.0938 8.79751H36.2593L37.1833 4.94098H39.4066L37.0678 14.8526H34.8445L35.7396 11.0682H33.5452L32.6501 14.8526H30.4268L32.7945 4.94098ZM75.7879 4.94098H78.0112L77.0872 8.79751H79.2816L80.2056 4.94098H82.4289L80.0612 14.8526H77.8379L78.733 11.0682H76.5675L75.6724 14.8526H73.4202L75.7879 4.94098Z" fill="white"/>
<path d="M9.11776 4.0762L5.73949 0.00341797L0.571045 4.0762H3.48732L1.72601 11.4649C1.72601 11.4649 2.30349 11.573 3.11196 11.573C3.74719 11.573 4.12255 11.3207 4.29579 10.9603C4.38242 10.744 4.41129 10.6719 4.49791 10.3115L5.99936 4.04015H9.11776V4.0762Z" fill="white"/>
</g>
<defs>
<clipPath id="clip0_201_163">
<rect width="81.8579" height="15" fill="white" transform="translate(0.571045)"/>
</clipPath>
</defs>
</svg>
