<svg width="60" height="21" viewBox="0 0 60 21" fill="none" xmlns="http://www.w3.org/2000/svg">
<path fill-rule="evenodd" clip-rule="evenodd" d="M25.8983 18.7924L27.0999 15.3189C27.1283 15.2407 27.151 15.1557 27.151 15.0704C27.151 14.9988 27.0885 14.9399 27.0318 14.9399C26.9583 14.9399 26.8902 14.9988 26.8391 15.0515L23.9317 17.9049C23.365 18.4596 22.7529 18.8513 21.9935 18.8513C21.1263 18.8513 20.4009 18.29 20.4009 17.232C20.4009 17.0751 20.412 16.912 20.4233 16.7557C19.165 18.2962 17.7992 19.2429 15.9231 19.2429C14.8578 19.2429 13.8206 19.0144 12.8004 18.6689L11.8764 18.3554L11.0375 18.7924C9.38247 19.6611 7.5521 20.0073 5.73814 20.0073C4.51957 20.0073 0.756348 19.6873 0.756348 17.5848C0.756348 16.6707 1.75416 15.8547 2.36596 15.4885C3.94719 14.5356 5.77787 13.9743 7.56314 13.9743C8.9233 13.9743 10.2497 14.3332 11.5701 14.666L11.876 14.7441L12.6752 13.5561C14.6134 10.6958 16.0133 7.26146 18.3883 4.81314C22.1572 0.934846 27.3093 0.00732422 32.2006 0.00732422C34.9606 0.00732422 37.7491 0.366634 40.3108 1.60696C41.5296 2.19443 43.3486 3.55937 43.3486 5.30251C43.3486 6.961 41.9658 8.12322 40.8043 8.78262C39.1376 9.71632 37.1432 9.98371 35.3063 9.98371C33.515 9.98371 27.4509 9.4551 27.4509 6.51704C27.4509 3.93794 30.9706 2.9977 32.6484 2.9977C34.1161 2.9977 35.4933 3.46782 36.825 4.12722L37.1596 4.29688L36.6951 4.86473C35.8957 4.24456 34.8474 3.98335 33.895 3.98335C32.7499 3.98335 30.9817 4.90397 30.9817 6.45783C30.9817 8.39715 33.4756 9.1808 34.7906 9.1808C36.5646 9.1808 39.4435 8.00551 39.4435 5.50451C39.4435 3.79406 38.0042 2.5076 36.7803 1.86782C35.3463 1.11723 33.7818 0.849105 32.2173 0.849105C30.0523 0.849105 27.8419 1.3323 25.881 2.41605C24.1806 3.34974 22.9393 4.98862 21.8854 6.74484L20.593 8.88653C19.2328 11.1456 17.8216 13.5092 16.0136 15.3178L15.3845 15.9379L16.3763 16.343C16.8809 16.5454 17.4249 16.617 17.9578 16.617C19.3975 16.617 20.1114 16.0818 20.9049 14.7499L22.0099 11.7988H25.7959L24.6678 15.2131L24.5997 15.4351C24.5883 15.4871 24.5659 15.5394 24.5659 15.5921C24.5659 15.6764 24.6451 15.7417 24.7075 15.7417C24.8491 15.7417 24.9967 15.6048 25.0929 15.5132L28.057 12.6925C28.6127 12.1574 29.1961 11.7523 29.9445 11.7523C30.9136 11.7523 31.5654 12.2882 31.6559 13.3915L31.6449 13.4108L31.7127 13.3519C32.5632 12.6148 33.4866 11.9419 34.5923 11.9419C35.5784 11.9419 36.6383 12.6337 36.6383 13.894C36.6383 14.1425 36.5873 14.3972 36.5078 14.6257L36.0089 15.9964C35.9751 16.0945 35.8783 16.2711 35.8783 16.3754C35.8783 16.5904 36.1451 16.6555 36.2921 16.6555C36.6667 16.6555 37.0121 16.3754 37.2725 16.088C37.4368 15.0689 37.7714 14.1359 38.3776 13.3519C39.1433 12.3663 40.2764 11.6611 41.4445 11.6611C42.4644 11.6611 43.19 12.3928 43.5924 13.3981L45.3436 8.76882H48.9142L46.4941 15.5852C46.4547 15.6967 46.3809 15.8464 46.3809 15.9641C46.3809 16.1407 46.5398 16.2515 46.6814 16.2515C47.0497 16.2515 47.5597 15.8791 47.8713 15.6575C48.0696 14.9258 48.3301 14.2206 48.7779 13.6466C49.7641 12.3928 51.3459 11.8377 52.7796 11.8377C53.8736 11.8377 55.6639 12.3601 55.6639 13.9655C55.6639 15.5005 54.1394 16.3361 52.989 16.3361C52.3545 16.3361 51.7761 16.0942 51.1924 15.8395C51.1696 15.9637 51.1413 16.0942 51.1413 16.2249C51.1413 17.2306 52.099 17.8315 52.8758 17.8315C54.0262 17.8315 55.2618 16.9305 56.2653 16.3492C57.3814 15.6963 58.487 15.1216 59.7563 15.1016L59.2975 16.6754C58.1124 16.6689 57.1319 17.0155 56.0158 17.4853C55.1085 17.8642 54.2135 18.2751 53.3062 18.6602C52.6339 18.9391 51.9243 19.0805 51.2097 19.078C49.572 19.078 48.608 18.3728 47.8769 16.7543C46.9245 17.5441 45.3326 19.078 44.0797 19.078C43.3146 19.078 42.7646 18.4378 42.5095 17.6611C41.6649 18.399 40.6961 19.0518 39.6021 19.0518C38.5192 19.0518 37.6526 18.2097 37.4031 17.0344C37.0682 17.4122 36.6973 17.7452 36.2974 18.0269C35.504 18.5883 34.6541 19.0649 33.7074 19.0649C32.8628 19.0649 32.0924 18.412 32.0924 17.393C32.0924 17.1256 32.1602 16.8905 32.245 16.6424L32.8291 14.9777C32.8628 14.8796 32.8802 14.7685 32.8802 14.6576C32.8802 14.3895 32.6645 14.246 32.4434 14.246C31.8824 14.246 31.2989 14.6377 30.9867 15.1735L29.6382 18.7902H25.8983V18.7924V18.7924Z" fill="white"/>
<path fill-rule="evenodd" clip-rule="evenodd" d="M26.142 10.6242H22.4409L23.2117 8.40442H26.9068L26.142 10.6242Z" fill="white"/>
<path fill-rule="evenodd" clip-rule="evenodd" d="M9.62619 17.3432L6.65642 16.0433C6.17454 15.8348 5.6646 15.7105 5.14299 15.7105C4.43469 15.7105 3.25586 16.0767 3.25586 17.0951C3.25586 18.6293 5.06384 18.8974 6.05565 18.8974C7.42149 18.8974 8.59495 18.3416 9.62619 17.3432V17.3432ZM40.5605 15.7632C40.5605 16.4033 40.9405 16.9447 41.5239 16.9447C42.4306 16.9447 43.049 15.959 43.049 14.9799C43.049 14.4052 42.7368 13.8043 42.1817 13.8043C41.3255 13.8039 40.5605 14.7968 40.5605 15.7632V15.7632ZM51.4424 14.9011C51.7092 15.0126 51.9807 15.1034 52.2639 15.1034C52.8817 15.1034 53.8227 14.6529 53.8227 13.8112C53.8227 13.4449 53.5112 13.223 53.2217 13.223C52.4683 13.223 51.9129 14.0135 51.5556 14.6925L51.4424 14.9011Z" fill="white"/>
</svg>
