<svg width="93" height="85" viewBox="0 0 93 85" fill="none" xmlns="http://www.w3.org/2000/svg">
<path d="M35.4885 6.77876C29.4249 0.761656 20.4597 -0.642645 13.0476 2.58446L23.7798 13.2237C26.6535 16.0788 26.6535 20.7009 23.7798 23.5467C20.9061 26.4018 16.2375 26.4018 13.3638 23.5467L2.63161 12.9075C-0.614094 20.2638 0.780905 29.1546 6.85381 35.1717C12.0339 40.3146 19.3251 42.063 25.956 40.4634L32.6334 47.0943L33.8796 45.8574C34.2795 45.4668 34.7166 45.1413 35.1816 44.8437C34.9491 44.6856 34.7259 44.4996 34.512 44.3136L34.4283 44.2485L34.2888 44.1369L34.1586 44.0067C33.6936 43.5603 33.2844 43.0209 32.9031 42.3978C32.4474 41.6538 32.1219 40.8447 31.9173 40.0077C31.2198 37.1247 32.0568 34.1766 34.1307 32.112L34.2051 32.0376L34.2888 31.9632L36.2232 30.2706L40.1478 26.3646C40.371 26.1507 40.6035 25.9461 40.836 25.7601L40.8081 25.7229C42.4356 19.1478 40.6779 11.9124 35.4885 6.77876ZM81.6723 66.3081L55.9299 40.7424H49.6338L46.1184 44.0346C45.5697 44.574 44.9466 45.0297 44.277 45.3831C44.3328 45.4296 44.3979 45.4668 44.4444 45.5226L44.463 45.5505L44.6583 45.69L44.8257 45.8574C45.3837 46.4247 45.8487 47.0478 46.2114 47.7174C46.5648 47.6709 46.9275 47.643 47.2995 47.643C49.3734 47.643 51.3171 48.4521 52.7679 49.8936C54.1164 51.2421 54.879 52.9812 55.0185 54.7575C56.1438 55.1481 57.1854 55.7526 58.041 56.5896C59.7057 58.2543 60.4497 60.4584 60.273 62.6253C60.6822 62.8578 61.0728 63.1368 61.4448 63.4344C63.0258 64.7457 64.0116 66.5871 64.179 68.6331C64.365 70.6698 63.7419 72.66 62.412 74.2317L61.296 75.543L66.8388 81.0393C68.8848 83.0667 71.5725 84.0897 74.2695 84.0897C76.9572 84.0897 79.6449 83.076 81.7002 81.0393C85.7736 76.9845 85.7736 70.3815 81.6723 66.3081ZM59.0454 66.2523C58.227 65.5641 57.1296 65.2293 56.0694 65.3409L54.8604 65.4711L55.6323 64.5504C56.9715 62.9601 56.8692 60.6537 55.4091 59.2029C54.3117 58.1241 52.6377 57.7521 51.1869 58.2729L49.764 58.7844L50.6103 57.5475C51.6984 55.9665 51.4938 53.8554 50.1267 52.4976C49.3734 51.7536 48.369 51.3351 47.2902 51.3351C46.2207 51.3351 45.2163 51.7443 44.4537 52.4976L42.5565 54.3669L43.1517 52.479C43.6167 51.0561 43.2354 49.5123 42.1845 48.4614L42.0543 48.3684C41.2917 47.6895 40.3431 47.2989 39.3387 47.2989C39.069 47.2989 38.7714 47.3268 38.4273 47.4105C37.6833 47.5872 37.0137 47.9499 36.5022 48.4614L31.6755 53.2416C31.5639 53.3625 31.4709 53.4834 31.3779 53.6043L31.3221 53.6787C30.1224 55.2597 30.2805 57.501 31.6755 58.8774C32.8473 60.0399 34.6515 60.4119 36.2697 59.6214L37.5531 58.9983L36.9207 60.2631C36.1674 61.7976 36.465 63.6297 37.674 64.8201C38.8551 65.9826 40.6221 66.3546 42.2682 65.5641L43.5516 64.941L42.9192 66.2058C42.1566 67.7403 42.4635 69.5724 43.6725 70.7814C44.835 71.9346 46.6206 72.3159 48.2481 71.5254L49.5129 70.9302L48.8991 72.1764C48.09 73.8225 48.5271 75.8034 49.9314 76.9566C50.6568 77.5704 51.5775 77.8866 52.5075 77.8866C53.6142 77.8866 54.693 77.4123 55.4556 76.5846L55.5672 76.4823L59.5011 71.8323C60.1893 71.0232 60.5241 69.9816 60.4311 68.9214C60.3753 67.8891 59.8731 66.9312 59.0454 66.2523ZM90.4794 29.7777L76.4085 15.8184L64.4673 27.648L64.2441 27.6387C64.179 27.6387 64.1139 27.6294 64.0581 27.6201C64.0023 27.6108 63.9558 27.6108 63.9186 27.6108H46.1742C44.9001 27.6108 43.7004 28.1037 42.7983 28.9965L38.79 32.9583L36.7626 34.7253C35.6094 35.8692 35.1444 37.5246 35.535 39.1521C35.6559 39.6264 35.8326 40.0821 36.0837 40.5006C36.3069 40.8633 36.5301 41.1609 36.7812 41.3934L36.9393 41.5143C37.8321 42.3327 38.976 42.7791 40.1571 42.7791C40.2594 42.7791 40.3617 42.7698 40.464 42.7512L40.6314 42.7419C41.7567 42.6303 42.7611 42.1653 43.5237 41.4027L48.1551 37.0596H58.2177L61.8447 40.5192L74.5857 53.13L90.4887 37.3479C92.5998 35.2647 92.5998 31.8609 90.4794 29.7777Z" fill="black"/>
</svg>
