<svg width="58" height="20" viewBox="0 0 58 20" fill="none" xmlns="http://www.w3.org/2000/svg">
<g clip-path="url(#clip0_201_182)">
<path d="M13.2672 9.73123H24.9634V11.5687H20.7095V17.9321H17.5211V11.5687H13.2672V9.73123Z" fill="white"/>
<path d="M32.4857 9.72383H35.6736V15.8588C35.6736 16.0115 35.7349 16.0861 35.8579 16.0861H41.6083V17.9247H33.1015C32.7015 17.9247 32.4857 17.6573 32.4857 17.1624V9.72383Z" fill="white"/>
<path d="M26.3722 9.72383H29.5604V17.9247H26.3722V9.72383Z" fill="white"/>
<path d="M0.795409 10.4916C0.795409 9.99568 1.00943 9.73147 1.41035 9.73147L11.7202 9.72392V11.5613L4.1685 11.5689C4.04464 11.5689 3.98381 11.6458 3.98381 11.7985V12.734C3.98381 12.8878 4.04464 12.9625 4.1685 12.9625H11.285C11.6869 12.9625 11.9007 13.2278 11.9007 13.7248V17.1679C11.9007 17.6638 11.6871 17.9324 11.2852 17.9324H0.787109V16.0938H8.52764C8.65085 16.0938 8.71255 16.0181 8.71255 15.8664V14.9299C8.71255 14.7772 8.65085 14.7003 8.52764 14.7003H1.41252C1.01382 14.7003 0.795409 14.435 0.795409 13.9391V10.4916Z" fill="white"/>
<path d="M42.5653 9.73123H45.7537V15.8662C45.7537 16.0178 45.8151 16.0936 45.9383 16.0936H51.6883V17.9321H43.1811C42.7815 17.9321 42.5653 17.6647 42.5653 17.1699V9.73123Z" fill="white"/>
<path d="M18.5827 0.196042H37.4165L33.8534 6.49237H15.0197L18.5827 0.196042Z" fill="white"/>
</g>
<defs>
<clipPath id="clip0_201_182">
<rect width="56.7332" height="20" fill="white" transform="translate(0.628418)"/>
</clipPath>
</defs>
</svg>
