<svg width="66" height="14" viewBox="0 0 66 14" fill="none" xmlns="http://www.w3.org/2000/svg">
<path fill-rule="evenodd" clip-rule="evenodd" d="M7.96329 12.9693C7.09651 12.2993 6.45763 9.98719 6.45763 7.23948C6.45763 7.13866 6.45797 7.03911 6.46004 6.93999L6.46073 6.94127C4.04933 6.47375 2.30714 5.19284 2.26232 3.67754L2.25542 3.69541C1.6655 4.60025 1.32865 5.64633 1.32865 6.7609C1.32865 10.0408 4.24654 12.7281 7.94778 12.9659L7.96329 12.9693ZM0.213623 6.99998C0.213623 3.3304 3.91521 0.354675 8.48116 0.354675C13.0475 0.354675 16.749 3.3304 16.749 6.99998C16.749 10.67 13.0475 13.6457 8.48116 13.6457C3.91521 13.6457 0.213623 10.67 0.213623 6.99998ZM8.4815 1.31354C9.36311 1.31354 10.113 2.9637 10.3909 5.26601L10.3916 5.26218C12.1069 4.93292 13.3074 4.17314 13.3074 3.28871C13.3074 2.10225 11.1467 1.14125 8.4815 1.14125C5.81668 1.14125 3.65593 2.10225 3.65593 3.28871C3.65593 4.17314 4.85646 4.93249 6.57141 5.26218L6.57244 5.26601C6.85034 2.9637 7.60024 1.31354 8.4815 1.31354ZM9.01522 12.9655C12.7165 12.7277 15.6347 10.0404 15.6347 6.76047C15.6347 5.6459 15.2975 4.59982 14.7079 3.69498L14.7007 3.67711C14.6562 5.19242 12.914 6.47332 10.5023 6.94084L10.5033 6.93957C10.505 7.03869 10.5057 7.13824 10.5057 7.23906C10.5057 9.98677 9.86649 12.2989 9.00005 12.9689L9.01522 12.9655ZM8.4815 5.4366C8.86417 5.43717 9.24667 5.41701 9.6279 5.37619L9.62756 5.37662C9.44482 3.9013 9.00074 2.85948 8.48185 2.85948C7.96295 2.85948 7.51921 3.9013 7.33614 5.37662L7.33579 5.37619C7.7168 5.4168 8.09907 5.43696 8.4815 5.4366ZM8.4815 10.9014C9.14521 10.9014 9.68686 9.19721 9.71548 7.06038L9.71893 7.06166C8.89583 7.15523 8.06751 7.15523 7.24442 7.06166L7.24787 7.06038C7.27649 9.19721 7.8178 10.9014 8.4815 10.9014ZM42.4019 6.99998C42.4019 4.19526 44.2451 1.92103 46.5182 1.92103C48.7924 1.92103 50.6353 4.19526 50.6353 6.99998C50.6353 9.80554 48.7921 12.0789 46.5182 12.0789C44.2451 12.0789 42.4019 9.80554 42.4019 6.99998ZM46.5182 10.2165C47.7877 10.2165 48.8172 8.77606 48.8172 6.99955C48.8172 5.22347 47.7877 3.78304 46.5182 3.78304C45.2487 3.78304 44.2199 5.22347 44.2199 6.99955C44.2199 8.77648 45.2491 10.2165 46.5182 10.2165ZM55.3064 4.03701V11.8484H53.5714V4.03701H53.5776H51.1521V2.27114H57.7257V4.03701H55.3064ZM59.8241 9.69366L59.8227 9.69579L59.1573 11.8488H57.131L60.3337 2.27114H62.4927L65.6947 11.8488H63.6691L63.0036 9.69579L63.0016 9.69366H59.8241ZM61.4132 8.07711H62.5047L62.5041 8.07754L61.4204 4.57217H61.4056L60.3219 8.07754L60.3212 8.07711H61.4132ZM23.3337 4.03701V11.8484H21.5991V4.03701H21.6053H19.1794V2.27114H25.7534V4.03701H23.3337ZM26.1971 6.99998C26.1971 4.19526 28.0403 1.92103 30.3141 1.92103C32.5876 1.92103 34.4309 4.19526 34.4309 6.99998C34.4309 9.80554 32.5876 12.0789 30.3141 12.0789C28.0403 12.0789 26.1971 9.80554 26.1971 6.99998ZM30.3141 10.2165C31.5833 10.2165 32.6128 8.77606 32.6128 6.99955C32.6128 5.22347 31.5833 3.78304 30.3141 3.78304C29.0447 3.78304 28.0155 5.22347 28.0155 6.99955C28.0155 8.77648 29.0447 10.2165 30.3141 10.2165ZM38.4158 11.8484H39.2954V8.21196L42.3215 2.27114H40.2959L38.4158 6.29678L36.5364 2.27114H34.5108L37.5366 8.21196V11.8484H38.4158Z" fill="white"/>
</svg>
